<svg xmlns="http://www.w3.org/2000/svg" viewBox="0 0 2588.36 654.95"><defs><style>.cls-1{font-size:498.53px;font-family:Roboto-Bold, Roboto;font-weight:700;letter-spacing:-0.02em;}.cls-1,.cls-3{fill:#fff;}.cls-2{fill:#e81966;}</style></defs><g id="Layer_2" data-name="Layer 2"><g id="Layer_1-2" data-name="Layer 1"><text class="cls-1" transform="translate(389.4 485.12) scale(1.01 1)">ujulishane</text><circle class="cls-2" cx="726.18" cy="155.79" r="42.58"/><circle class="cls-2" cx="1233.2" cy="155.79" r="42.58"/><path class="cls-2" d="M328.06,654.6c-17.8-1.49-43.73,3.78-68.69-4.18-59.58-19-109.11-51.74-144.37-104.52C96.58,518.33,82.76,489,75.38,456.72c-2.8-12.28-3.42-24.82-4.47-37.31-.77-9.21,3.61-14.09,12.54-14q67,.75,134,2c6.81.13,9,5.46,11.25,11,7.65,18.58,12.84,38.32,28.15,53.09s33.7,24.52,54.22,27.18c27.31,3.54,55.07,3.51,82.59,5.59,32,2.42,51.51,21.9,63,49.74,11.95,29,5.85,54.54-15.67,78.18-14.54,16-31.81,21.49-51.69,22.26C371.46,655.15,353.56,654.6,328.06,654.6Z"/><path class="cls-3" d="M377.2,252.93c9.51,21.07,5.41,46.27-4.47,67.14-13,27.42-40,47.95-67.6,45.42-42.39-3.9-40.28,28.57-44.34,49.69a2.48,2.48,0,0,1-4.79.57c-3.85-9.46-6.61-29.37-5.8-34.64,1.07-7,4.3-20,21.12-30.41,9-5.58,25.83-4,35.92-6.61,38.11-9.88,58.08-37.57,57-79.83-.3-11.6-5.55-41.35-1.58-42.39,3.59-1,8.6,16,10.3,21.06C373.6,244.91,375.26,248.64,377.2,252.93Z"/><circle class="cls-2" cx="146.15" cy="65.49" r="65.49"/><circle class="cls-2" cx="39.99" cy="275.7" r="33.8"/><circle class="cls-2" cx="146.15" cy="275.7" r="33.8"/><circle class="cls-2" cx="245.97" cy="275.7" r="33.8"/><path class="cls-3" d="M1.11,345.42H223.79s10.56,13.2,0,21.12H22S21.17,353.6.73,347.21C-.43,346.85-.13,345.42,1.11,345.42Z"/></g></g></svg>