<svg id="Layer_1" data-name="Layer 1" xmlns="http://www.w3.org/2000/svg" viewBox="0 0 3000 3000"><defs><style>.cls-1{font-size:498.53px;font-family:Roboto-Bold, Roboto;font-weight:700;letter-spacing:-0.02em;}.cls-1,.cls-3{fill:#252257;}.cls-2{fill:#e81966;}</style></defs><text class="cls-1" transform="translate(630.04 1657.66) scale(1.01 1)">ujulishane</text><circle class="cls-2" cx="966.83" cy="1328.33" r="42.58"/><circle class="cls-2" cx="1473.84" cy="1328.33" r="42.58"/><path class="cls-2" d="M568.7,1827.14c-17.8-1.49-43.73,3.78-68.69-4.18-59.58-19-109.11-51.74-144.37-104.52-18.42-27.57-32.23-56.87-39.61-89.18-2.81-12.29-3.42-24.82-4.47-37.31-.78-9.21,3.6-14.09,12.54-14q67,.75,134,2c6.82.12,9,5.46,11.25,11,7.65,18.58,12.84,38.32,28.16,53.09s33.69,24.52,54.21,27.18c27.31,3.54,55.07,3.51,82.59,5.59,32,2.42,51.51,21.9,63,49.74,12,29,5.85,54.53-15.67,78.18-14.53,16-31.81,21.49-51.68,22.26C612.1,1827.69,594.2,1827.14,568.7,1827.14Z"/><path class="cls-3" d="M617.84,1425.47c9.52,21.07,5.41,46.27-4.47,67.13-13,27.43-40,48-67.6,45.43-42.39-3.9-40.28,28.57-44.34,49.69a2.48,2.48,0,0,1-4.79.57c-3.85-9.46-6.61-29.37-5.8-34.64,1.07-7,4.3-20,21.13-30.41,9-5.58,25.82-4,35.91-6.61,38.11-9.88,58.08-37.58,57-79.84-.3-11.59-5.55-41.34-1.58-42.39,3.59-.94,8.61,16,10.3,21.06C614.25,1417.45,615.9,1421.18,617.84,1425.47Z"/><circle class="cls-2" cx="386.79" cy="1238.03" r="65.49"/><circle class="cls-2" cx="280.63" cy="1448.24" r="33.8"/><circle class="cls-2" cx="386.79" cy="1448.24" r="33.8"/><circle class="cls-2" cx="486.61" cy="1448.24" r="33.8"/><path class="cls-3" d="M241.75,1518H464.43s10.56,13.2,0,21.12H262.67s-.86-12.94-21.3-19.33C240.21,1519.39,240.51,1518,241.75,1518Z"/></svg>